<?xml version="1.0" encoding="UTF-8" standalone="no"?>
<!-- Created with Inkscape (http://www.inkscape.org/) -->

<svg
   xmlns:dc="http://purl.org/dc/elements/1.1/"
   xmlns:cc="http://creativecommons.org/ns#"
   xmlns:rdf="http://www.w3.org/1999/02/22-rdf-syntax-ns#"
   xmlns:svg="http://www.w3.org/2000/svg"
   xmlns="http://www.w3.org/2000/svg"
   xmlns:sodipodi="http://sodipodi.sourceforge.net/DTD/sodipodi-0.dtd"
   xmlns:inkscape="http://www.inkscape.org/namespaces/inkscape"
   id="svg3004"
   version="1.1"
   inkscape:version="0.48.4 r9939"
   width="900"
   height="152.5"
   xml:space="preserve"
   sodipodi:docname="logo-saiku-big.svg"><metadata
     id="metadata3010"><rdf:RDF><cc:Work
         rdf:about=""><dc:format>image/svg+xml</dc:format><dc:type
           rdf:resource="http://purl.org/dc/dcmitype/StillImage" /></cc:Work></rdf:RDF></metadata><defs
     id="defs3008" /><sodipodi:namedview
     pagecolor="#ffffff"
     bordercolor="#666666"
     borderopacity="1"
     objecttolerance="10"
     gridtolerance="10"
     guidetolerance="10"
     inkscape:pageopacity="0"
     inkscape:pageshadow="2"
     inkscape:window-width="1366"
     inkscape:window-height="713"
     id="namedview3006"
     showgrid="false"
     inkscape:zoom="1.3344444"
     inkscape:cx="450"
     inkscape:cy="76.25"
     inkscape:window-x="1920"
     inkscape:window-y="27"
     inkscape:window-maximized="1"
     inkscape:current-layer="g3012" /><g
     id="g3012"
     inkscape:groupmode="layer"
     inkscape:label="ink_ext_XXXXXX"
     transform="matrix(1.25,0,0,-1.25,0,152.5)"><g
       id="g3014"
       transform="scale(0.1,0.1)"><path
         d="m 5989.06,646.359 c 17.35,333.442 301.68,589.531 635,572.031 333.36,-17.5 589.53,-301.949 572.19,-635.39 -9.3,-178.672 -95.23,-335.121 -224.3,-439.18 l 0,559.758 c 0,88.992 -71.4,228.402 -174.37,252.473 l 0,-910.3596 C 6760.43,32.2617 6721.6,22.4492 6681.6,16.5508 l 0,448.9882 c 0,88.941 -71.4,228.359 -174.37,252.422 l 0,-701.8008 c -40.12,5.7109 -78.91,15.3086 -115.98,28.4414 l 0,215.4684 c 0,88.981 -71.45,228.399 -174.37,252.461 l 0,-371.25 c -147.7,117.5 -238.36,302.231 -227.82,505.078"
         style="fill:#c52120;fill-opacity:1;fill-rule:nonzero;stroke:none"
         id="path3016" /><path
         d="m 5242.3,180.191 c 116.57,116.598 174.54,256.008 174.54,419.637 l 0,589.852 -252.39,0 0,-589.852 c 0,-93.316 -33.16,-173.75 -98.67,-239.207 -65.39,-62.312 -144.14,-93.949 -234.45,-93.949 -92.97,0 -173.44,31.68 -239.03,94.137 -62.46,65.589 -94.14,146.089 -94.14,239.019 l 0,589.852 -256.68,0 0,-589.852 c 0,-163.629 56.53,-302.957 170,-419.406 C 4528.01,66.6719 4667.5,9.98828 4831.33,9.98828 c 160.78,0 297.3,56.56252 410.97,170.20272 z m -1949.14,1009.839 -256.68,0 0,-1179.6902 256.68,0 0,359.3402 646.96,-345.0003 c 31.13,-16.80079 62.65,-19.1797 96.36,-7.1484 33.6,11.9882 57.35,34.5703 71.96,68.707 14.41,31.2497 15.9,63.6327 3.63,98.0507 -12.27,34.262 -34.3,58.121 -65.39,72.461 l -638.87,343.441 638.87,343.43 c 31.52,14.57 53.36,37.27 65.39,68.169 12.15,34.1 11.09,67.77 -3.63,102.34 -14.38,30.94 -37.82,52.19 -71.96,64.38 -34.21,12.22 -66.05,10.97 -97.1,-3.17 l -646.22,-344.61 0,359.3 z m -427.38,0.47 -256.68,0 0,-1180.51172 256.68,0 0,1180.51172 z M 106.371,574.871 C 176.559,507.371 261.211,473.66 361.68,473.66 l 459.34,0 c 26.32,0 48.281,-13.16 65.742,-33.441 21.289,-18.43 33.398,-42.098 33.398,-70.028 0,-28.363 -12.43,-52.312 -34.262,-70.82 -18.168,-17.859 -39.957,-28.32 -64.878,-28.32 l -687.54,0 c -180.3589,0 -175.5503,-261.06272 0,-261.06272 l 687.54,0 c 97.07,0 180.19,34.77342 250.62,105.23072 70.31,70.281 105.24,154.769 105.24,254.972 0,97.071 -34.97,180.348 -105.4,250.821 -70.5,73.238 -153.71,109.328 -250.46,109.328 l -459.34,0 c -56.801,0 -103.481,40.941 -103.481,99.18 0,66.058 37.391,103.48 103.481,103.48 l 647.19,0 c 157.58,0 152.34,256.68 0,256.68 l -647.19,0 c -99.84,0 -184.41,-36.29 -254.801,-109.34 C 36.4492,1009.87 1.51953,926.59 1.51953,829.52 1.51953,729.48 36.2891,645.109 106.371,574.871 z m 1979.409,151.141 -440.19,0 c -100.32,0 -184.81,-33.563 -254.97,-100.864 -70.27,-70.32 -105.19,-154.769 -105.19,-254.957 0,-97.07 34.92,-180.363 105.35,-250.82 C 1461.17,46.2813 1545.74,9.98828 1645.59,9.98828 l 796.05,0 0,819.53172 c 0,99.808 -34.61,184.38 -105.19,254.96 -70.43,70.43 -153.56,105.2 -250.67,105.2 l -574.8,0 c -175.55,0 -180.36,-261.02 0,-261.02 l 574.8,0 c 24.92,0 46.76,-10.512 64.88,-28.32 21.84,-18.551 34.26,-42.5 34.26,-70.86 0,-27.929 -12.07,-51.601 -33.36,-70.039 -17.46,-20.269 -39.45,-33.429 -65.78,-33.429 z m -440.19,-256.684 540.7,0 0,-202.656 -540.7,0 c -66.1,0 -103.48,37.457 -103.48,103.519 0,58.2 46.68,99.137 103.48,99.137"
         style="fill:#c52120;fill-opacity:1;fill-rule:nonzero;stroke:none"
         id="path3018" /></g></g></svg>