<?xml version="1.0" encoding="UTF-8" standalone="no"?>
<!-- Created with Inkscape (http://www.inkscape.org/) -->

<svg
   xmlns:dc="http://purl.org/dc/elements/1.1/"
   xmlns:cc="http://creativecommons.org/ns#"
   xmlns:rdf="http://www.w3.org/1999/02/22-rdf-syntax-ns#"
   xmlns:svg="http://www.w3.org/2000/svg"
   xmlns="http://www.w3.org/2000/svg"
   xmlns:sodipodi="http://sodipodi.sourceforge.net/DTD/sodipodi-0.dtd"
   xmlns:inkscape="http://www.inkscape.org/namespaces/inkscape"
   id="svg3004"
   version="1.1"
   inkscape:version="0.48.4 r9939"
   width="151"
   height="151"
   xml:space="preserve"
   sodipodi:docname="logo-saiku-small.svg"><metadata
     id="metadata3010"><rdf:RDF><cc:Work
         rdf:about=""><dc:format>image/svg+xml</dc:format><dc:type
           rdf:resource="http://purl.org/dc/dcmitype/StillImage" /></cc:Work></rdf:RDF></metadata><defs
     id="defs3008" /><sodipodi:namedview
     pagecolor="#ffffff"
     bordercolor="#666666"
     borderopacity="1"
     objecttolerance="10"
     gridtolerance="10"
     guidetolerance="10"
     inkscape:pageopacity="0"
     inkscape:pageshadow="2"
     inkscape:window-width="1366"
     inkscape:window-height="713"
     id="namedview3006"
     showgrid="false"
     inkscape:zoom="1.3344444"
     inkscape:cx="178.07403"
     inkscape:cy="105.70375"
     inkscape:window-x="1920"
     inkscape:window-y="27"
     inkscape:window-maximized="1"
     inkscape:current-layer="g3012"
     inkscape:snap-page="false"
     inkscape:snap-grids="true"
     fit-margin-left="0"
     fit-margin-top="0"
     fit-margin-right="0"
     fit-margin-bottom="0"
     borderlayer="false"
     inkscape:showpageshadow="false"
     showborder="true" /><g
     id="g3012"
     inkscape:groupmode="layer"
     inkscape:label="ink_ext_XXXXXX"
     transform="matrix(1.25,0,0,-1.25,-0.65202768,151.52128)"><path
       inkscape:connector-curvature="0"
       id="path3016"
       style="fill:#c52120;fill-opacity:1;fill-rule:nonzero;stroke:none"
       d="m 1.2034813,63.87528 c 1.72229,33.258948 29.9471197,58.80238 63.0350797,57.05685 33.09194,-1.74552 58.521389,-30.117702 56.800079,-63.37655 -0.92319,-17.82152 -9.45327,-33.426424 -22.265779,-43.80572 l 0,55.832688 c 0,8.87645 -7.08773,22.78181 -17.30934,25.18275 l 0,-90.8032082 c -3.6878,-1.339537 -7.54237,-2.318278 -11.51308,-2.90661 l 0,44.7840302 c 0,8.87136 -7.08773,22.77751 -17.30934,25.177658 l 0,-70.0006482 c -3.98263,0.56963 -7.83323,1.526946 -11.51309,2.836868 l 0,21.4917522 c 0,8.87535 -7.09268,22.78151 -17.30933,25.18155 l 0,-37.030081 C 9.1568213,25.216569 0.15719132,43.64244 1.2034813,63.87528" /></g></svg>